<?xml version="1.0" standalone="no"?>
<!DOCTYPE svg PUBLIC "-//W3C//DTD SVG 20010904//EN"
 "http://www.w3.org/TR/2001/REC-SVG-20010904/DTD/svg10.dtd">
<svg version="1.0" xmlns="http://www.w3.org/2000/svg"
 width="900.000000pt" height="900.000000pt" viewBox="0 0 900.000000 900.000000"
 preserveAspectRatio="xMidYMid meet">
<metadata>
Created by potrace 1.14, written by Peter Selinger 2001-2017
</metadata>
<g transform="translate(0.000000,900.000000) scale(0.100000,-0.100000)"
fill="#000000" stroke="none">
<path d="M4325 8399 c-101 -12 -181 -33 -178 -47 2 -6 -4 -9 -12 -5 -18 6
-166 -47 -159 -58 2 -4 -4 -6 -14 -5 -9 0 -16 -5 -14 -12 1 -8 -2 -11 -7 -8
-21 13 -265 -158 -257 -180 3 -7 0 -11 -7 -8 -17 6 -90 -73 -81 -87 4 -7 3 -9
-3 -6 -6 4 -19 -3 -29 -15 -11 -12 -13 -18 -6 -14 17 10 15 -6 -4 -30 -15 -19
-16 -19 -10 1 14 45 -37 -33 -84 -130 -54 -110 -69 -152 -51 -141 7 5 9 1 5
-8 -3 -9 -9 -14 -14 -11 -4 2 -15 -30 -23 -73 -36 -170 -51 -415 -24 -408 6 1
9 1 5 -1 -5 -3 -8 -29 -8 -58 0 -42 4 -54 17 -57 9 -2 515 -2 1124 0 1043 2
1108 3 1112 20 3 12 5 10 7 -8 l2 -25 8 25 c4 14 8 43 9 65 1 31 -2 37 -10 25
-9 -12 -10 -12 -5 3 3 10 6 21 6 23 0 3 5 2 12 -2 8 -5 9 31 4 142 -3 82 -9
165 -13 184 -6 33 -7 34 -13 10 -5 -16 -7 -2 -6 35 0 44 -5 72 -22 103 -12 23
-20 42 -17 42 10 0 -66 153 -106 212 -56 83 -129 159 -143 151 -6 -3 -8 -3 -4
2 12 13 -51 68 -69 61 -12 -5 -13 -3 -5 7 9 10 5 17 -18 31 -17 9 -30 14 -30
9 0 -4 -6 3 -13 16 -6 14 -18 26 -26 29 -8 3 -11 1 -8 -4 3 -5 -1 -18 -9 -29
-8 -10 -14 -14 -14 -8 0 7 4 14 9 17 15 10 5 41 -13 40 -9 -1 -13 3 -9 9 4 6
0 8 -11 4 -9 -4 -15 -3 -12 2 8 13 -103 74 -121 67 -8 -3 -12 -2 -8 3 3 5 -25
19 -62 31 -38 12 -75 24 -83 28 -8 3 -19 6 -25 7 -5 0 -15 4 -21 7 -39 25
-316 42 -439 27z m133 -6 c-10 -2 -28 -2 -40 0 -13 2 -5 4 17 4 22 1 32 -1 23
-4z m-138 -13 c0 -5 -2 -10 -4 -10 -3 0 -8 5 -11 10 -3 6 -1 10 4 10 6 0 11
-4 11 -10z m283 3 c-7 -2 -21 -2 -30 0 -10 3 -4 5 12 5 17 0 24 -2 18 -5z
m114 -9 c-3 -3 -12 -4 -19 -1 -8 3 -5 6 6 6 11 1 17 -2 13 -5z m-512 -14 c3
-5 -1 -10 -10 -10 -9 0 -13 5 -10 10 3 6 8 10 10 10 2 0 7 -4 10 -10z m-75
-30 c0 -5 -5 -10 -11 -10 -5 0 -7 5 -4 10 3 6 8 10 11 10 2 0 4 -4 4 -10z
m740 -10 c0 -5 -2 -10 -4 -10 -3 0 -8 5 -11 10 -3 6 -1 10 4 10 6 0 11 -4 11
-10z m25 -10 c-3 -5 -1 -10 6 -10 7 0 10 -3 6 -6 -9 -9 -28 6 -22 17 4 5 8 9
11 9 3 0 2 -4 -1 -10z m-885 -20 c0 -5 -5 -10 -11 -10 -5 0 -7 5 -4 10 3 6 8
10 11 10 2 0 4 -4 4 -10z m1060 -56 c0 -2 -9 0 -20 6 -11 6 -20 13 -20 16 0 2
9 0 20 -6 11 -6 20 -13 20 -16z m-1165 -3 c3 -5 2 -12 -3 -15 -5 -3 -9 1 -9 9
0 17 3 19 12 6z m-91 -66 c-4 -10 0 -15 12 -16 11 0 14 -3 7 -6 -7 -2 -13 -12
-13 -20 0 -9 -2 -14 -5 -11 -9 8 -15 50 -9 59 9 14 14 10 8 -6z m1351 -15 c3
-5 1 -10 -4 -10 -6 0 -11 5 -11 10 0 6 2 10 4 10 3 0 8 -4 11 -10z m-1401 -15
c-4 -8 -11 -15 -16 -15 -6 0 -5 6 2 15 7 8 14 15 16 15 2 0 1 -7 -2 -15z m-47
-70 c0 -8 -4 -15 -9 -15 -10 0 -11 14 -1 23 9 10 10 9 10 -8z m1557 -8 c-3 -8
-11 -14 -18 -14 -8 0 -12 6 -9 14 3 7 11 13 19 13 7 0 11 -6 8 -13z m-1617
-17 c-1 -11 -7 -20 -14 -20 -16 0 -17 12 -1 28 16 16 17 15 15 -8z m1719 -62
l29 -33 -32 29 c-18 17 -33 24 -33 17 0 -7 -5 -9 -11 -5 -8 4 -7 9 2 15 8 5
14 9 15 9 0 0 13 -15 30 -32z m-1820 -93 c9 -8 11 -15 6 -15 -5 0 -15 7 -22
15 -7 8 -9 15 -6 15 4 0 14 -7 22 -15z m44 -5 c0 -5 -5 -10 -11 -10 -5 0 -7 5
-4 10 3 6 8 10 11 10 2 0 4 -4 4 -10z m1836 -23 c6 2 11 -3 11 -11 0 -20 -32
-3 -41 21 -5 16 -5 16 6 2 7 -9 18 -14 24 -12z m-1916 3 c0 -5 7 -7 15 -4 8 4
15 4 15 1 0 -13 -30 -14 -40 -1 -9 10 -9 14 -1 14 6 0 11 -4 11 -10z m1954
-40 c-5 -5 -10 3 -11 18 -1 22 0 24 9 8 6 -10 6 -22 2 -26z m-1964 11 c0 -4
-6 -8 -14 -8 -8 0 -12 6 -9 14 5 13 23 9 23 -6z m-4 -78 c-3 -4 -6 -1 -6 7 0
10 -3 10 -17 -1 -15 -13 -15 -12 -3 10 11 22 13 23 22 7 5 -10 7 -20 4 -23z
m2022 -1 c6 -18 -15 -14 -22 4 -4 10 -1 14 6 12 6 -2 14 -10 16 -16z m-2131
-174 c-3 -8 -6 -5 -6 6 -1 11 2 17 5 13 3 -3 4 -12 1 -19z m-10 -55 c-3 -10
-5 -4 -5 12 0 17 2 24 5 18 2 -7 2 -21 0 -30z m2230 -94 c0 -21 -3 -26 -9 -16
-4 9 -5 22 -2 31 9 23 11 20 11 -15z m-2210 -1 c-3 -8 -6 -5 -6 6 -1 11 2 17
5 13 3 -3 4 -12 1 -19z m-33 -13 c3 -8 1 -15 -4 -15 -6 0 -10 7 -10 15 0 8 2
15 4 15 2 0 6 -7 10 -15z m2253 -82 c-3 -10 -5 -4 -5 12 0 17 2 24 5 18 2 -7
2 -21 0 -30z m-2270 -85 c-3 -7 -5 -2 -5 12 0 14 2 19 5 13 2 -7 2 -19 0 -25z
m2270 -30 c-2 -13 -4 -5 -4 17 -1 22 1 32 4 23 2 -10 2 -28 0 -40z m-2254
-123 c-7 -21 -13 -19 -13 6 0 11 4 18 10 14 5 -3 7 -12 3 -20z m1685 -12
c-269 -2 -707 -2 -975 0 -269 1 -49 2 487 2 536 0 756 -1 488 -2z m-1683 -23
c3 -5 1 -10 -4 -10 -6 0 -11 5 -11 10 0 6 2 10 4 10 3 0 8 -4 11 -10z m1622
-7 c-290 -2 -764 -2 -1055 0 -290 1 -52 2 528 2 580 0 818 -1 527 -2z"/>
<path d="M3382 6915 c6 -19 15 -32 19 -29 5 3 6 -2 3 -11 -4 -8 -1 -22 6 -30
11 -13 147 -15 1079 -15 l1066 1 16 22 c10 13 22 40 27 60 l10 37 -1118 0
-1118 0 10 -35z m38 2 c0 -7 -4 -6 -10 3 -8 12 -10 12 -10 1 0 -8 -3 -12 -6
-8 -9 9 6 28 17 22 5 -4 9 -12 9 -18z"/>
<path d="M3467 6738 c2 -5 12 -8 21 -8 15 0 15 -2 2 -10 -14 -9 -7 -14 13 -11
5 1 5 -3 2 -9 -4 -6 1 -20 11 -31 17 -19 38 -19 970 -19 826 1 954 3 964 15
10 12 10 19 -1 33 -12 15 -12 16 1 6 12 -9 18 -9 28 2 7 8 10 14 5 14 -4 0 1
6 10 13 14 10 -185 12 -1007 12 -563 0 -1022 -3 -1019 -7z m86 -15 c-7 -2 -19
-2 -25 0 -7 3 -2 5 12 5 14 0 19 -2 13 -5z m1395 0 c-240 -2 -636 -2 -880 0
-244 1 -47 2 437 2 484 0 683 -1 443 -2z m470 -18 c6 -14 10 -25 8 -25 -2 0
-11 11 -20 25 -9 14 -13 25 -8 25 5 0 14 -11 20 -25z"/>
<path d="M3633 6538 c-6 -11 6 -28 19 -28 6 0 5 7 -3 17 -11 13 -11 15 -1 9 7
-4 17 -19 22 -32 l10 -25 800 2 c776 1 800 1 813 20 8 10 16 17 19 14 3 -3 11
1 18 10 11 13 -80 15 -840 17 -468 2 -854 0 -857 -4z m1647 -24 c0 -8 -4 -12
-10 -9 -5 3 -10 10 -10 16 0 5 5 9 10 9 6 0 10 -7 10 -16z m-107 -11 c-23 -2
-64 -2 -90 0 -26 2 -7 3 42 3 50 0 71 -1 48 -3z"/>
<path d="M3855 6345 l40 -25 580 0 c568 0 581 1 625 21 26 13 39 23 31 26 -7
3 -18 -1 -23 -8 -7 -11 -11 -11 -15 -1 -4 9 -131 12 -591 12 -383 0 -582 -4
-572 -10 12 -7 8 -10 -15 -11 -26 0 -28 -2 -10 -10 l20 -9 -20 3 c-13 2 -19 9
-17 20 2 14 -5 17 -35 17 l-38 -1 40 -24z m238 8 c-18 -2 -48 -2 -65 0 -18 2
-4 4 32 4 36 0 50 -2 33 -4z m560 0 c-83 -2 -223 -2 -310 0 -87 1 -18 3 152 3
171 0 242 -2 158 -3z m350 0 c-24 -2 -62 -2 -85 0 -24 2 -5 4 42 4 47 0 66 -2
43 -4z m-230 -20 c-156 -2 -410 -2 -565 0 -156 1 -29 2 282 2 311 0 438 -1
283 -2z"/>
<path d="M4118 6192 c95 -33 189 -46 357 -46 169 -1 340 17 329 35 -3 5 1 7 8
4 7 -3 33 1 58 9 40 12 -4 13 -372 12 -358 -1 -412 -3 -380 -14z m89 -8 c-3
-3 -12 -4 -19 -1 -8 3 -5 6 6 6 11 1 17 -2 13 -5z m106 -1 c-7 -2 -19 -2 -25
0 -7 3 -2 5 12 5 14 0 19 -2 13 -5z m204 1 c-3 -3 -12 -4 -19 -1 -8 3 -5 6 6
6 11 1 17 -2 13 -5z m61 -1 c-10 -2 -26 -2 -35 0 -10 3 -2 5 17 5 19 0 27 -2
18 -5z m172 -3 c0 -5 -7 -10 -15 -10 -8 0 -15 5 -15 10 0 6 7 10 15 10 8 0 15
-4 15 -10z m-497 -7 c-7 -2 -19 -2 -25 0 -7 3 -2 5 12 5 14 0 19 -2 13 -5z
m430 -10 c-7 -2 -19 -2 -25 0 -7 3 -2 5 12 5 14 0 19 -2 13 -5z m-170 -10
c-23 -2 -64 -2 -90 0 -26 2 -7 3 42 3 50 0 71 -1 48 -3z"/>
<path d="M2105 5770 c-96 -142 -175 -261 -175 -264 0 -3 373 -6 828 -6 920 0
869 3 1007 -68 81 -43 182 -134 220 -197 14 -25 34 -49 44 -55 12 -6 182 -10
446 -10 l428 -1 30 28 c16 15 36 42 43 60 37 86 205 201 354 242 73 20 97 21
878 21 643 0 803 3 799 13 -2 7 -80 121 -173 255 l-168 242 -876 0 c-948 0
-929 1 -1055 -55 -89 -40 -150 -89 -202 -164 -26 -36 -50 -70 -54 -74 -4 -5
-23 16 -44 47 -86 130 -154 183 -286 224 -48 15 -149 17 -961 19 l-907 3 -176
-260z"/>
<path d="M5777 4043 l-3 -1278 -23 -80 c-61 -214 -181 -392 -370 -550 -39 -33
-71 -63 -71 -68 0 -13 202 -327 211 -327 14 0 175 136 273 230 204 197 285
338 363 634 l38 141 3 1288 3 1287 -211 0 -210 0 -3 -1277z"/>
<path d="M6430 4041 c0 -1220 -1 -1284 -19 -1393 -55 -317 -236 -643 -503
-904 -90 -89 -231 -204 -249 -204 -19 0 -6 -27 93 -190 l102 -168 70 49 c186
131 430 363 549 522 133 177 229 375 299 617 82 283 78 199 78 1656 l0 1294
-210 0 -210 0 0 -1279z"/>
<path d="M2110 3986 c0 -1288 1 -1326 20 -1422 27 -131 43 -187 92 -319 115
-311 266 -528 543 -784 112 -104 327 -271 348 -271 3 0 23 30 46 68 23 37 64
101 91 142 88 133 86 125 42 151 -290 176 -576 535 -682 859 -74 225 -70 114
-70 1583 l0 1317 -215 0 -215 0 0 -1324z"/>
<path d="M2772 3983 l3 -1328 23 -75 c100 -326 308 -614 567 -785 46 -30 86
-55 89 -55 3 0 49 66 102 148 53 81 103 157 111 168 13 20 10 24 -56 74 -157
116 -312 312 -368 466 -55 152 -53 104 -53 1460 l0 1254 -210 0 -210 0 2
-1327z"/>
<path d="M4028 3633 c-2 -824 -7 -1406 -12 -1417 -7 -15 -6 -18 5 -11 8 4 12
6 9 2 -3 -3 -9 -5 -14 -5 -14 0 -86 -116 -81 -130 3 -7 0 -10 -5 -7 -5 3 -17
-9 -27 -28 -10 -19 -30 -52 -44 -73 -66 -100 -128 -200 -131 -213 -2 -8 -12
-25 -23 -39 -11 -13 -21 -31 -21 -40 -2 -25 -21 -69 -33 -77 -18 -11 -12 -28
7 -20 14 5 15 4 5 -6 -21 -21 -41 5 -22 28 17 20 46 84 31 68 -5 -5 -20 -30
-33 -55 -13 -25 -32 -54 -41 -64 -14 -15 -15 -23 -6 -33 8 -10 8 -17 -1 -26
-10 -9 -11 -8 -6 5 14 37 -11 16 -42 -35 -18 -28 -65 -104 -104 -167 -40 -63
-73 -126 -74 -140 -3 -37 -4 -40 -16 -40 -8 0 -7 5 1 15 7 9 10 18 8 21 -10 9
-78 -113 -72 -129 3 -8 1 -18 -5 -22 -7 -4 -8 1 -4 12 6 16 5 16 -10 4 -9 -7
-17 -17 -17 -22 0 -5 -16 -33 -35 -63 -23 -33 -33 -59 -29 -69 4 -12 2 -16 -7
-12 -13 4 -27 -16 -99 -138 l-22 -37 1424 2 1423 3 -1410 5 -1410 5 1383 3
c1042 1 1381 5 1376 14 -5 7 -3 8 7 2 32 -20 38 -12 18 24 -44 80 -69 117 -79
118 -23 3 -24 5 -12 12 9 7 7 16 -11 43 -13 19 -30 33 -37 31 -8 -2 -10 3 -6
14 9 23 -63 141 -75 122 -6 -9 -8 -5 -7 12 2 16 -2 24 -10 22 -8 -1 -11 2 -7
7 11 18 -23 70 -42 65 -22 -5 -51 12 -39 23 5 4 11 2 13 -4 5 -15 33 -17 33
-3 0 6 -5 10 -11 10 -5 0 -8 3 -6 8 3 4 -6 23 -20 42 -14 19 -23 27 -19 17 3
-11 2 -16 -5 -12 -6 4 -8 14 -5 22 8 19 -22 75 -35 67 -6 -3 -9 0 -8 7 5 22
-22 64 -31 50 -5 -9 -9 -8 -13 4 -4 9 -3 13 3 10 18 -11 10 9 -21 55 -16 25
-39 63 -51 85 -19 36 -22 38 -30 20 -7 -17 -8 -17 -4 4 3 15 -2 30 -13 40 -9
9 -10 12 -2 6 12 -8 12 -7 2 12 -7 14 -17 20 -26 17 -8 -4 -15 -1 -15 5 0 6 4
11 10 11 5 0 0 16 -11 35 -12 19 -25 32 -30 29 -5 -3 -6 3 -2 12 4 12 3 15 -5
10 -8 -4 -10 -2 -6 7 3 8 -1 21 -9 28 -8 8 -16 19 -18 24 -5 13 -70 124 -123
210 -24 39 -49 69 -56 67 -17 -4 -31 18 -25 39 7 20 -38 102 -50 92 -4 -5 -6
-3 -2 2 3 6 -1 35 -9 65 -12 46 -14 271 -14 1392 l0 1338 -165 0 -165 0 0 -24
c0 -13 6 -27 13 -29 10 -4 10 -6 0 -6 -19 -1 -19 -2681 0 -2681 9 0 8 -3 -2
-9 -25 -16 20 -158 79 -251 29 -44 55 -80 59 -80 4 0 8 -6 8 -12 0 -14 111
-198 119 -198 3 0 2 10 -2 23 -3 12 -3 18 2 14 4 -4 8 -20 9 -35 0 -17 6 -27
15 -27 9 0 14 -9 13 -20 -2 -27 16 -57 29 -49 7 4 8 3 4 -5 -4 -6 7 -34 25
-61 35 -54 37 -56 36 -37 -1 32 4 48 13 42 8 -5 7 -11 -1 -21 -9 -11 -8 -18 2
-31 10 -11 10 -14 2 -9 -18 10 -16 -4 5 -37 10 -15 22 -24 27 -20 4 5 5 2 1
-4 -4 -7 2 -25 12 -40 11 -16 34 -52 52 -80 18 -30 37 -50 43 -46 5 3 7 1 4
-4 -4 -6 7 -36 24 -67 l31 -56 -736 0 c-443 0 -737 4 -741 9 -3 5 -1 12 5 16
5 3 10 17 10 31 0 13 5 23 11 21 6 -1 27 25 47 59 20 34 47 76 59 95 20 29 20
35 7 42 -10 5 -13 16 -8 29 4 15 3 18 -6 13 -8 -5 -11 -4 -6 3 4 6 14 8 22 5
11 -4 12 -9 5 -16 -16 -16 -14 -26 4 -23 17 2 57 74 49 87 -3 5 1 6 9 3 13 -4
43 41 39 58 -1 5 2 8 7 8 5 0 14 14 21 30 7 17 17 30 22 30 5 0 6 5 3 10 -3 5
-2 10 2 10 14 0 75 109 67 122 -4 6 -3 8 3 5 6 -4 41 42 81 106 111 179 142
239 136 267 -4 17 -3 21 4 12 6 -10 11 0 16 34 3 26 6 667 6 1425 l0 1379
-165 0 -165 0 -2 -1397z m129 1381 c-3 -3 -12 -4 -19 -1 -8 3 -5 6 6 6 11 1
17 -2 13 -5z m536 -11 c-7 -2 -19 -2 -25 0 -7 3 -2 5 12 5 14 0 19 -2 13 -5z
m105 0 c-16 -2 -40 -2 -55 0 -16 2 -3 4 27 4 30 0 43 -2 28 -4z m117 -3 c3 -5
2 -10 -4 -10 -5 0 -13 5 -16 10 -3 6 -2 10 4 10 5 0 13 -4 16 -10z m2 -67 c-3
-10 -5 -2 -5 17 0 19 2 27 5 18 2 -10 2 -26 0 -35z m-570 -2016 c-1 -370 -2
-64 -2 678 0 743 1 1045 2 672 2 -373 2 -981 0 -1350z m570 135 c-1 -312 -2
-54 -2 573 0 627 1 882 2 567 2 -316 2 -829 0 -1140z m6 -699 c2 -34 0 -60 -5
-57 -4 3 -7 38 -7 77 1 81 6 73 12 -20z m-881 -95 c-8 -8 -9 -4 -5 13 4 13 8
18 11 10 2 -7 -1 -18 -6 -23z m608 -61 c12 3 20 0 20 -7 0 -7 -7 -10 -15 -6
-10 4 -15 -1 -15 -16 0 -28 -6 -21 -13 17 -4 17 -4 25 -1 19 3 -7 14 -10 24
-7z m341 -34 c12 -16 12 -17 -2 -6 -9 7 -20 9 -24 5 -5 -4 -5 -1 -1 6 9 16 11
15 27 -5z m-731 -13 c0 -5 -2 -10 -4 -10 -3 0 -8 5 -11 10 -3 6 -1 10 4 10 6
0 11 -4 11 -10z m-260 -20 c0 -5 -7 -10 -16 -10 -8 0 -12 5 -9 10 3 6 10 10
16 10 5 0 9 -4 9 -10z m680 -27 c0 -7 -26 3 -32 12 -15 20 -8 24 12 8 11 -10
20 -19 20 -20z m-635 17 c-3 -5 -12 -10 -18 -10 -7 0 -6 4 3 10 19 12 23 12
15 0z m221 -35 c-11 -17 -12 -25 -3 -36 10 -10 8 -10 -6 1 -12 9 -15 16 -7 24
5 5 10 18 10 29 0 10 5 15 11 12 7 -5 5 -14 -5 -30z m454 -69 c12 -35 10 -33
-24 17 -21 31 -22 35 -6 25 11 -7 24 -26 30 -42z m344 28 c4 -9 2 -13 -5 -8
-7 4 -10 1 -7 -7 3 -8 11 -13 17 -11 7 1 9 -3 6 -9 -11 -17 -37 14 -29 34 8
21 10 21 18 1z m-1130 -19 c-4 -8 -11 -12 -16 -9 -6 4 -5 10 3 15 19 12 19 11
13 -6z m826 -35 c0 -5 -5 -10 -11 -10 -5 0 -7 5 -4 10 3 6 8 10 11 10 2 0 4
-4 4 -10z m-542 -17 c-6 -7 -14 -10 -19 -7 -15 9 -10 20 10 20 15 0 17 -3 9
-13z m-18 -38 c0 -12 -20 6 -31 28 l-11 22 21 -22 c11 -12 21 -25 21 -28z
m915 7 c-8 -8 -25 10 -25 26 0 13 2 13 14 -4 8 -10 13 -21 11 -22z m-1261 -64
c-15 -32 -14 -12 2 26 5 14 4 17 -4 12 -13 -8 -17 6 -5 18 16 16 22 -24 7 -56z
m1223 56 c-3 -3 -12 -4 -19 -1 -8 3 -5 6 6 6 11 1 17 -2 13 -5z m-894 -29 c-3
-9 -8 -14 -10 -11 -3 3 -2 9 2 15 9 16 15 13 8 -4z m966 -56 c-10 -6 -9 -12 6
-30 l20 -22 -22 14 c-25 15 -26 19 -17 43 3 9 11 13 16 10 6 -4 5 -10 -3 -15z
m-1302 -41 c-3 -7 -5 -2 -5 12 0 14 2 19 5 13 2 -7 2 -19 0 -25z m-22 2 c3 -6
-1 -7 -9 -4 -18 7 -21 14 -7 14 6 0 13 -4 16 -10z m1039 -25 c-4 -8 -7 -15 -9
-15 -2 0 -5 7 -9 15 -3 9 0 15 9 15 9 0 12 -6 9 -15z m-1111 -20 c-3 -9 -8
-14 -10 -11 -3 3 -2 9 2 15 9 16 15 13 8 -4z m1521 -71 c3 -8 2 -12 -4 -9 -6
3 -10 10 -10 16 0 14 7 11 14 -7z m-1303 -131 c-12 -20 -14 -14 -5 12 4 9 9
14 11 11 3 -2 0 -13 -6 -23z m-391 -99 c0 -9 -55 -74 -63 -74 -4 0 1 10 12 22
12 12 23 30 27 40 5 16 24 26 24 12z m1807 -26 c-3 -7 -5 -2 -5 12 0 14 2 19
5 13 2 -7 2 -19 0 -25z m-299 -23 c-3 -3 -9 2 -12 12 -6 14 -5 15 5 6 7 -7 10
-15 7 -18z m-1498 11 c0 -2 -7 -9 -15 -16 -13 -11 -14 -10 -9 4 5 14 24 23 24
12z m290 -16 c0 -5 -2 -10 -4 -10 -3 0 -8 5 -11 10 -3 6 -1 10 4 10 6 0 11 -4
11 -10z m-60 -20 c0 -5 -2 -10 -4 -10 -3 0 -8 5 -11 10 -3 6 -1 10 4 10 6 0
11 -4 11 -10z m1288 -15 c-3 -3 -9 2 -12 12 -6 14 -5 15 5 6 7 -7 10 -15 7
-18z m-1616 -38 c-7 -8 -8 -18 -4 -22 4 -5 1 -5 -6 -1 -9 5 -9 12 -1 27 6 12
13 18 16 15 3 -3 1 -12 -5 -19z m1645 1 c-3 -8 -6 -5 -6 6 -1 11 2 17 5 13 3
-3 4 -12 1 -19z m43 -28 c0 -4 -6 -7 -14 -7 -8 0 -13 10 -12 24 1 21 2 22 14
6 6 -9 12 -20 12 -23z m17 -32 c-3 -7 -5 -2 -5 12 0 14 2 19 5 13 2 -7 2 -19
0 -25z m-1717 12 c0 -5 -2 -10 -4 -10 -3 0 -8 5 -11 10 -3 6 -1 10 4 10 6 0
11 -4 11 -10z m-20 -14 c0 -2 -7 -9 -15 -16 -13 -11 -14 -10 -9 4 5 14 24 23
24 12z m1751 -59 c-10 -9 -11 -8 -5 6 3 10 9 15 12 12 3 -3 0 -11 -7 -18z m66
0 c1 -11 1 -18 0 -16 -2 2 -8 11 -15 20 -9 12 -9 16 1 16 7 0 14 -9 14 -20z
m283 2 c0 -6 -4 -7 -10 -4 -5 3 -10 11 -10 16 0 6 5 7 10 4 6 -3 10 -11 10
-16z m-1854 -37 c-18 -16 -18 -16 -6 6 6 13 14 21 18 18 3 -4 -2 -14 -12 -24z
m-320 -10 c-18 -16 -18 -16 -6 6 6 13 14 21 18 18 3 -4 -2 -14 -12 -24z m30
-14 c4 -7 3 -8 -4 -4 -7 4 -12 2 -12 -5 0 -7 -3 -10 -6 -6 -6 5 3 27 11 27 2
0 7 -5 11 -12z m2198 -24 c3 -8 2 -12 -4 -9 -6 3 -10 10 -10 16 0 14 7 11 14
-7z m-2199 -24 c3 -5 1 -10 -4 -10 -6 0 -11 5 -11 10 0 6 2 10 4 10 3 0 8 -4
11 -10z m2279 -106 c3 -8 2 -12 -4 -9 -6 3 -10 10 -10 16 0 14 7 11 14 -7z
m-2394 -29 c0 -3 -9 -14 -20 -25 -19 -19 -20 -19 -20 -1 0 11 6 22 13 24 17 7
27 8 27 2z m2413 -20 c-7 -21 -12 -19 -10 4 0 11 5 18 9 15 4 -3 5 -11 1 -19z
m-2475 -25 c-7 -10 -14 -17 -17 -15 -4 4 18 35 25 35 2 0 -1 -9 -8 -20z m-23
-54 c0 -18 -3 -22 -13 -14 -9 8 -9 14 -1 24 15 18 14 18 14 -10z m23 -21 c-3
-3 -9 2 -12 12 -6 14 -5 15 5 6 7 -7 10 -15 7 -18z m2565 -42 c0 -4 8 -16 16
-25 9 -9 25 -32 35 -50 11 -18 17 -31 14 -28 -66 70 -98 109 -83 104 14 -6 16
-4 10 7 -4 8 -5 11 -1 7 4 -3 8 -10 9 -15z m-36 -45 c-3 -8 -6 -5 -6 6 -1 11
2 17 5 13 3 -3 4 -12 1 -19z m51 -33 c-3 -3 -9 2 -12 12 -6 14 -5 15 5 6 7 -7
10 -15 7 -18z m2 -12 c11 3 18 1 14 -4 -9 -15 -61 -11 -61 6 0 11 4 12 14 4 7
-6 22 -9 33 -6z"/>
<path d="M5010 2121 c0 -5 5 -13 10 -16 6 -3 10 -2 10 4 0 5 -4 13 -10 16 -5
3 -10 2 -10 -4z"/>
</g>
</svg>
